<?xml version="1.0" standalone="no"?>
<!DOCTYPE svg PUBLIC "-//W3C//DTD SVG 20010904//EN"
 "http://www.w3.org/TR/2001/REC-SVG-20010904/DTD/svg10.dtd">
<svg version="1.0" xmlns="http://www.w3.org/2000/svg"
 width="1200.000000pt" height="1200.000000pt" viewBox="0 0 1200.000000 1200.000000"
 preserveAspectRatio="xMidYMid meet">
<metadata>
Created by potrace 1.14, written by Peter Selinger 2001-2017
</metadata>
<g transform="translate(0.000000,1200.000000) scale(0.100000,-0.100000)"
fill="#000000" stroke="none">
<path d="M5718 11944 c-2 -1 -48 -5 -103 -9 -149 -9 -272 -21 -335 -30 -14 -2
-74 -11 -135 -20 -153 -21 -164 -23 -305 -51 -69 -14 -136 -28 -150 -30 -21
-4 -203 -51 -325 -84 -191 -52 -489 -158 -690 -245 -27 -12 -79 -35 -115 -50
-93 -41 -430 -213 -530 -272 -47 -27 -96 -56 -109 -64 -14 -8 -30 -18 -35 -22
-6 -4 -67 -44 -136 -88 -408 -264 -839 -632 -1144 -973 -33 -38 -70 -78 -81
-90 -36 -38 -200 -240 -269 -331 -37 -49 -74 -98 -81 -107 -8 -10 -27 -37 -41
-60 -15 -24 -30 -45 -33 -48 -6 -4 -94 -138 -171 -260 -104 -163 -289 -516
-380 -725 -28 -66 -58 -133 -65 -150 -7 -16 -29 -75 -49 -130 -21 -55 -45
-122 -55 -150 -49 -132 -128 -401 -165 -565 -22 -97 -31 -133 -41 -170 0 -3
-5 -27 -10 -55 -5 -27 -9 -52 -10 -55 -1 -3 -5 -25 -9 -50 -5 -25 -10 -54 -12
-65 -3 -11 -7 -38 -10 -60 -6 -47 -12 -90 -19 -125 -7 -34 -12 -79 -20 -175
-4 -44 -9 -88 -11 -97 -24 -134 -25 -943 0 -1074 2 -11 7 -53 10 -94 4 -41 14
-122 22 -180 20 -139 23 -156 34 -215 16 -83 20 -108 25 -143 3 -18 19 -92 36
-165 127 -543 350 -1121 598 -1551 28 -49 51 -91 51 -94 0 -3 11 -22 24 -41
23 -36 112 -177 131 -209 63 -108 394 -556 445 -602 3 -3 36 -41 75 -85 369
-423 801 -794 1275 -1095 80 -51 157 -101 172 -111 15 -11 29 -19 31 -19 3 0
49 -25 103 -56 541 -307 1181 -538 1817 -655 89 -16 185 -32 212 -35 28 -2 73
-8 100 -14 28 -5 84 -12 125 -15 41 -4 89 -8 105 -10 215 -26 918 -26 1076 0
13 2 51 6 84 9 79 8 134 14 220 27 39 6 84 13 100 15 17 2 68 12 115 20 47 9
96 18 110 20 261 48 793 204 995 293 11 5 56 23 100 41 44 18 95 39 112 46 18
8 35 14 38 14 3 0 109 53 237 118 329 166 584 322 868 531 101 74 295 226 326
256 6 5 42 37 79 70 656 575 1205 1332 1540 2120 21 50 48 114 61 143 13 29
24 56 24 60 0 5 18 56 40 115 38 101 126 369 135 412 2 11 13 52 24 90 11 39
22 81 25 95 3 14 14 63 25 110 22 90 76 384 86 460 3 25 10 77 15 115 32 236
45 449 44 750 0 194 -9 432 -19 520 -2 17 -6 57 -10 90 -6 63 -32 269 -40 314
-7 47 -34 196 -40 226 -6 27 -20 91 -50 230 -58 262 -209 717 -319 960 -13 28
-36 79 -51 115 -31 69 -178 361 -222 438 -14 26 -66 112 -115 192 -49 80 -95
154 -101 165 -7 11 -14 22 -17 25 -3 3 -29 41 -59 85 -94 138 -302 410 -376
491 -5 6 -39 44 -75 85 -122 139 -323 342 -449 455 -30 27 -64 58 -75 69 -23
23 -289 240 -327 268 -13 9 -56 41 -96 71 -40 29 -105 75 -145 102 -40 27 -74
52 -76 57 -2 4 -7 7 -12 7 -5 0 -41 22 -82 48 -472 313 -1195 624 -1758 757
-74 17 -291 65 -315 69 -16 3 -70 12 -120 20 -94 16 -197 31 -277 40 -27 4
-69 9 -95 12 -27 3 -70 7 -98 9 -27 2 -84 7 -125 10 -74 7 -677 15 -682 9z"/>
</g>
</svg>
